<svg viewBox="0 0 128 128" xmlns="http://www.w3.org/2000/svg">
<path fill="#DD0031" d="M63.81 1.026L4.553 21.88l9.363 77.637 49.957 27.457 50.214-27.828 9.36-77.635L63.938 1.026h-.128zM117.536 25.998L63.672 7.629L9.869 25.998l-8.076 66.605 61.729 33.991 61.932-34.084-8.013-66.512h.095z"/>
<path fill="#DD0031" d="M63.81 127.341l49.955-27.457L123.127 22.25 63.81 1.026v126.315z"/>
<path fill="#C3002F" d="M63.81 1.026L4.553 21.88l9.363 77.637 49.957 27.457V1.026h-.063z"/>
<path fill="#fff" d="M63.81 23.052l32.63 72.553H78.706l-5.732-13.99H54.694l-5.805 13.99H31.155l32.655-72.553zm.127 20.972l-11.35 25.378h22.527l-11.177-25.378z"/>
</svg>
