<svg viewBox="0 0 128 128" xmlns="http://www.w3.org/2000/svg">
<linearGradient id="python-a" gradientUnits="userSpaceOnUse" x1="70.252" y1="1237.476" x2="170.659" y2="1151.089" gradientTransform="matrix(.563 0 0 -.568 -29.215 707.817)">
<stop offset="0" stop-color="#5A9FD4"/>
<stop offset="1" stop-color="#306998"/>
</linearGradient>
<linearGradient id="python-b" gradientUnits="userSpaceOnUse" x1="209.474" y1="1098.811" x2="173.62" y2="1149.537" gradientTransform="matrix(.563 0 0 -.568 -29.215 707.817)">
<stop offset="0" stop-color="#FFD43B"/>
<stop offset="1" stop-color="#FFE873"/>
</linearGradient>
<path fill="url(#python-a)" d="M63.391 1.988c-4.222.02-8.252.379-11.8 1.007-10.45 1.846-12.346 5.71-12.346 12.837v9.411h24.693v3.137H29.977c-7.176 0-13.46 4.313-15.426 12.521-2.268 9.405-2.368 15.275 0 25.096 1.755 7.311 5.947 12.519 13.124 12.519h8.491V67.234c0-8.151 7.051-15.34 15.426-15.34h24.665c6.866 0 12.346-5.654 12.346-12.548V15.833c0-6.693-5.646-11.72-12.346-12.837-4.244-.706-8.645-1.027-12.866-1.008zM50.037 9.557c2.55 0 4.634 2.117 4.634 4.721 0 2.593-2.083 4.69-4.634 4.69-2.56 0-4.633-2.097-4.633-4.69-.001-2.604 2.073-4.721 4.633-4.721z"/>
<path fill="url(#python-b)" d="M91.682 28.38v10.966c0 8.5-7.208 15.655-15.426 15.655H51.591c-6.756 0-12.346 5.783-12.346 12.549v23.515c0 6.691 5.818 10.628 12.346 12.547 7.816 2.297 15.312 2.713 24.665 0 6.216-1.801 12.346-5.423 12.346-12.547v-9.412H63.938v-3.138h37.012c7.176 0 9.852-5.005 12.348-12.519 2.578-7.735 2.467-15.174 0-25.096-1.774-7.145-5.161-12.521-12.348-12.521h-9.268zM77.809 87.927c2.561 0 4.634 2.097 4.634 4.692 0 2.602-2.074 4.719-4.634 4.719-2.55 0-4.633-2.117-4.633-4.719 0-2.595 2.083-4.692 4.633-4.692z"/>
<path fill="#366994" d="M463.554 119.526c-5.476 0-10.454-1.028-14.933-3.085-4.478-2.057-7.955-5.042-10.428-8.957-2.474-3.914-3.711-8.522-3.711-13.826 0-5.304 1.237-9.912 3.711-13.826 2.473-3.915 5.95-6.9 10.428-8.957 4.479-2.057 9.457-3.085 14.933-3.085 6.062 0 11.327 1.151 15.797 3.452 4.469 2.302 7.816 5.537 10.041 9.707l-11.839 6.97c-1.484-2.551-3.411-4.485-5.782-5.8-2.371-1.315-4.975-1.973-7.813-1.973-3.172 0-5.927.701-8.265 2.104-2.339 1.402-4.136 3.369-5.392 5.9-1.257 2.53-1.885 5.448-1.885 8.752s.628 6.222 1.885 8.752c1.256 2.531 3.053 4.498 5.392 5.9 2.338 1.403 5.093 2.104 8.265 2.104 2.838 0 5.442-.658 7.813-1.973 2.371-1.315 4.298-3.249 5.782-5.8l11.839 6.97c-2.225 4.17-5.572 7.405-10.041 9.707-4.47 2.301-9.735 3.452-15.797 3.452z" transform="matrix(.318 0 0 .318 .3 9.399)"/>
</svg>
